<svg width="64" height="59" viewBox="0 0 64 59" fill="none" xmlns="http://www.w3.org/2000/svg">
<path d="M29.7244 4.91664C33.396 4.91293 37.0223 5.72094 40.3399 7.28195C43.6575 8.84297 46.5831 11.1178 48.9041 13.9412L33.227 29.5L48.9041 45.0588C46.5831 47.8821 43.6575 50.157 40.3399 51.718C37.0223 53.279 33.396 54.087 29.7244 54.0833C16.0438 54.0833 4.95409 43.0773 4.95409 29.5C4.95409 15.9226 16.0438 4.91664 29.7244 4.91664ZM29.7244 12.2916C28.739 12.2916 27.7939 12.6801 27.0971 13.3717C26.4003 14.0632 26.0089 15.0012 26.0089 15.9791C26.0089 16.9571 26.4003 17.8951 27.0971 18.5866C27.7939 19.2781 28.739 19.6666 29.7244 19.6666C30.7099 19.6666 31.6549 19.2781 32.3517 18.5866C33.0485 17.8951 33.44 16.9571 33.44 15.9791C33.44 15.0012 33.0485 14.0632 32.3517 13.3717C31.6549 12.6801 30.7099 12.2916 29.7244 12.2916Z" fill="white"/>
<rect width="5.83673" height="5.80085" rx="2" transform="matrix(0.952958 -0.303101 0.307296 0.951614 44.0925 38.3781)" fill="white"/>
<rect width="5.83673" height="5.80085" rx="2" transform="matrix(0.952958 -0.303101 0.307296 0.951614 50.3259 36.3955)" fill="white"/>
<rect width="5.83673" height="5.80085" rx="2" transform="matrix(0.952958 -0.303101 0.307296 0.951614 54.6576 28.196)" fill="white"/>
<rect width="5.83673" height="5.80085" rx="2" transform="matrix(0.952958 -0.303101 0.307296 0.951614 48.3282 30.2091)" fill="white"/>
<rect width="5.83673" height="5.80085" rx="2" transform="matrix(0.952958 -0.303101 0.307296 0.951614 41.9988 32.2222)" fill="white"/>
<rect width="5.83673" height="5.80085" rx="2" transform="matrix(0.952958 -0.303101 0.307296 0.951614 40.097 26.0053)" fill="white"/>
<rect width="5.83673" height="5.80085" rx="2" transform="matrix(0.952958 -0.303101 0.307296 0.951614 46.3305 24.0227)" fill="white"/>
<rect width="5.83673" height="5.80085" rx="2" transform="matrix(0.952958 -0.303101 0.307296 0.951614 44.3328 17.8363)" fill="white"/>
<rect width="5.83673" height="5.80085" rx="2" transform="matrix(0.952958 -0.303101 0.307296 0.951614 50.6621 15.8232)" fill="white"/>
<ellipse cx="2.91836" cy="2.90042" rx="2.91836" ry="2.90042" transform="matrix(0.952958 -0.303101 0.307296 0.951614 38.0034 19.8495)" fill="white"/>
</svg>
