<svg width="396" height="159" viewBox="0 0 396 159" fill="none" xmlns="http://www.w3.org/2000/svg">
<path d="M6.32934 68V14.4062H40.1132V24.5988H18.4126V37.0109H36.9896V47.2036H18.4126V68H6.32934ZM49.4357 68V14.4062H82.973V24.5988H61.519V35.3669H79.7672V45.4774H61.519V57.8073H83.795V68H49.4357ZM94.4687 68V14.4062H109.593C115.073 14.4062 119.813 15.3377 123.814 17.2009C127.814 19.0641 130.91 21.9685 133.102 25.914C135.349 29.8048 136.472 34.8189 136.472 40.9565C136.472 47.094 135.376 52.163 133.184 56.1633C130.992 60.1637 127.924 63.1503 123.978 65.123C120.087 67.041 115.512 68 110.251 68H94.4687ZM106.552 58.2183H108.854C111.922 58.2183 114.58 57.6703 116.827 56.5743C119.128 55.4783 120.909 53.6699 122.17 51.1492C123.43 48.6284 124.06 45.2308 124.06 40.9565C124.06 36.6821 123.43 33.3394 122.17 30.9282C120.909 28.4622 119.128 26.736 116.827 25.7496C114.58 24.7084 111.922 24.1878 108.854 24.1878H106.552V58.2183ZM146.646 68V14.4062H180.183V24.5988H158.729V35.3669H176.977V45.4774H158.729V57.8073H181.005V68H146.646ZM191.679 68V14.4062H210.996C214.777 14.4062 218.229 14.9267 221.353 15.9679C224.476 16.9543 226.97 18.6531 228.833 21.0643C230.696 23.4755 231.628 26.8182 231.628 31.0926C231.628 35.0381 230.751 38.2987 228.997 40.8743C227.298 43.3951 224.997 45.2856 222.092 46.546L234.258 68H220.695L210.42 48.6832H203.762V68H191.679ZM203.762 39.0659H210.009C213.188 39.0659 215.599 38.4083 217.243 37.0931C218.942 35.7231 219.791 33.723 219.791 31.0926C219.791 28.4622 218.942 26.6264 217.243 25.5852C215.599 24.544 213.188 24.0235 210.009 24.0235H203.762V39.0659ZM254.024 40.8743L252.709 45.8062H264.135L262.902 40.8743C262.189 38.1891 261.45 35.3395 260.682 32.3256C259.97 29.3116 259.258 26.4072 258.545 23.6125H258.216C257.559 26.462 256.874 29.3938 256.161 32.4078C255.504 35.3669 254.791 38.1891 254.024 40.8743ZM234.625 68L251.394 14.4062H265.943L282.712 68H269.889L266.601 55.2591H250.243L246.955 68H234.625ZM288.568 68V14.4062H300.651V57.8073H321.858V68H288.568ZM324.339 39.0659L321.709 33.8052C324.175 32.5448 326.011 31.0926 327.216 29.4486C328.477 27.8046 329.107 25.777 329.107 23.3659C328.942 23.4207 328.696 23.4481 328.367 23.4481C326.613 23.4481 325.106 22.9275 323.846 21.8863C322.64 20.7903 322.038 19.3107 322.038 17.4475C322.038 15.3651 322.613 13.7212 323.764 12.5156C324.969 11.31 326.504 10.7072 328.367 10.7072C330.888 10.7072 332.806 11.6662 334.121 13.5842C335.436 15.4473 336.094 18.0777 336.094 21.4753C336.094 29.3664 332.176 35.2299 324.339 39.0659ZM363.203 68.9864C359.696 68.9864 356.189 68.3288 352.682 67.0136C349.23 65.6984 346.133 63.7804 343.393 61.2597L350.298 52.9576C352.216 54.6015 354.353 55.9441 356.71 56.9853C359.066 58.0265 361.34 58.5471 363.532 58.5471C366.053 58.5471 367.916 58.0813 369.122 57.1497C370.382 56.2181 371.012 54.9577 371.012 53.3686C371.012 51.6698 370.3 50.4368 368.875 49.6696C367.505 48.8476 365.642 47.9434 363.286 46.957L356.299 43.9978C354.49 43.2307 352.764 42.2169 351.12 40.9565C349.476 39.6413 348.134 38.0247 347.092 36.1067C346.051 34.1887 345.531 31.942 345.531 29.3664C345.531 26.4072 346.325 23.7221 347.914 21.3109C349.558 18.8997 351.805 16.9817 354.655 15.5569C357.559 14.1322 360.874 13.4198 364.601 13.4198C367.67 13.4198 370.738 14.0226 373.807 15.2281C376.876 16.4337 379.561 18.1873 381.863 20.4889L375.698 28.1334C373.944 26.7634 372.19 25.7222 370.437 25.0098C368.683 24.2427 366.738 23.8591 364.601 23.8591C362.518 23.8591 360.847 24.2975 359.587 25.1742C358.381 25.9962 357.778 27.1744 357.778 28.7088C357.778 30.3528 358.545 31.5858 360.08 32.4078C361.669 33.2298 363.614 34.1065 365.916 35.0381L372.821 37.8329C376.054 39.1481 378.629 40.9565 380.547 43.2581C382.465 45.5596 383.424 48.601 383.424 52.3822C383.424 55.3413 382.63 58.0813 381.041 60.6021C379.451 63.1229 377.15 65.1504 374.136 66.6848C371.122 68.2192 367.478 68.9864 363.203 68.9864ZM6.32934 146V92.4062H18.4126V146H6.32934ZM31.0533 146V92.4062H43.4654L57.4392 119.039L62.7 130.875H63.0288C62.8096 128.026 62.5082 124.847 62.1246 121.34C61.741 117.833 61.5492 114.49 61.5492 111.312V92.4062H73.0571V146H60.645L46.6711 119.285L41.4104 107.613H41.0816C41.3556 110.572 41.657 113.751 41.9858 117.148C42.3694 120.546 42.5612 123.834 42.5612 127.012V146H31.0533ZM85.7189 146V92.4062H100.844C106.324 92.4062 111.064 93.3377 115.064 95.2009C119.064 97.0641 122.161 99.9685 124.353 103.914C126.599 107.805 127.723 112.819 127.723 118.956C127.723 125.094 126.627 130.163 124.435 134.163C122.243 138.164 119.174 141.15 115.228 143.123C111.338 145.041 106.762 146 101.501 146H85.7189ZM97.8022 136.218H100.104C103.173 136.218 105.83 135.67 108.077 134.574C110.379 133.478 112.16 131.67 113.42 129.149C114.68 126.628 115.311 123.231 115.311 118.956C115.311 114.682 114.68 111.339 113.42 108.928C112.16 106.462 110.379 104.736 108.077 103.75C105.83 102.708 103.173 102.188 100.104 102.188H97.8022V136.218ZM137.896 146V92.4062H149.979V146H137.896ZM162.62 146V92.4062H196.157V102.599H174.703V113.367H192.952V123.477H174.703V135.807H196.979V146H162.62Z" fill="white"/>
<path d="M248.794 75.8259C254.211 75.8203 259.561 77.0547 264.455 79.4397C269.35 81.8246 273.666 85.3002 277.09 89.6138L253.962 113.385L277.09 137.156C273.666 141.469 269.35 144.945 264.455 147.33C259.561 149.715 254.211 150.949 248.794 150.944C228.612 150.944 212.251 134.129 212.251 113.385C212.251 92.641 228.612 75.8259 248.794 75.8259ZM248.794 87.0936C247.341 87.0936 245.946 87.6872 244.918 88.7437C243.89 89.8003 243.313 91.2332 243.313 92.7274C243.313 94.2216 243.89 95.6546 244.918 96.7112C245.946 97.7677 247.341 98.3613 248.794 98.3613C250.248 98.3613 251.642 97.7677 252.67 96.7112C253.698 95.6546 254.276 94.2216 254.276 92.7274C254.276 91.2332 253.698 89.8003 252.67 88.7437C251.642 87.6872 250.248 87.0936 248.794 87.0936Z" fill="white"/>
<rect width="8.63944" height="8.83432" rx="2.32239" transform="matrix(0.949801 -0.312855 0.29768 0.954666 269.991 126.949)" fill="white"/>
<rect width="8.63944" height="8.83432" rx="2.32239" transform="matrix(0.949801 -0.312855 0.29768 0.954666 279.187 123.92)" fill="white"/>
<rect width="8.63944" height="8.83432" rx="2.32239" transform="matrix(0.949801 -0.312855 0.29768 0.954666 285.578 111.392)" fill="white"/>
<rect width="8.63944" height="8.83432" rx="2.32239" transform="matrix(0.949801 -0.312855 0.29768 0.954666 276.24 114.468)" fill="white"/>
<rect width="8.63944" height="8.83432" rx="2.32239" transform="matrix(0.949801 -0.312855 0.29768 0.954666 266.903 117.544)" fill="white"/>
<rect width="8.63944" height="8.83432" rx="2.32239" transform="matrix(0.949801 -0.312855 0.29768 0.954666 264.097 108.046)" fill="white"/>
<rect width="8.63944" height="8.83432" rx="2.32239" transform="matrix(0.949801 -0.312855 0.29768 0.954666 273.293 105.017)" fill="white"/>
<rect width="8.63944" height="8.83432" rx="2.32239" transform="matrix(0.949801 -0.312855 0.29768 0.954666 270.346 95.5648)" fill="white"/>
<rect width="8.63944" height="8.83432" rx="2.32239" transform="matrix(0.949801 -0.312855 0.29768 0.954666 279.683 92.4891)" fill="white"/>
<ellipse cx="4.31972" cy="4.41716" rx="4.31972" ry="4.41716" transform="matrix(0.949801 -0.312855 0.29768 0.954666 261.008 98.6405)" fill="white"/>
</svg>
